# xmcd CD database file
#
# Track frame offsets:
#	150
#	18017
#	40052
#	62243
#	78877
#	94133
#	112044
#	138323
#	148149
#	173630
#	196144
#	209448
#	228278
#	251412
#	265635
#	278414
#	297599
#	311441
#	318605
#
# Disc length: 4460 seconds
#
# Revision: 1
# Processed by: cddbd v1.5.2PL0 Copyright (c) Steve Scherf et al.
# Submitted via: CDex 1.70beta2
#
DISCID=09116a13
DTITLE=Hot Jazz Cmpany - Dixieland Jazzband
DYEAR=2000
DGENRE=Jazz
TTITLE0=Please don't talk about me when I'm gone
TTITLE1=South
TTITLE2=New Orleans
TTITLE3=Muskrat ramble
TTITLE4=Kitty's dream
TTITLE5=Sweet Georgia Brown
TTITLE6=I wish I could shimmey like my sister Kate
TTITLE7=Avalon
TTITLE8=St James infirmary
TTITLE9=My Memphis baby
TTITLE10=Petite fleur
TTITLE11=I've found a new baby
TTITLE12=Do you know what it means to Miss New Orleans
TTITLE13=Savoy blues
TTITLE14=Wild cat blues
TTITLE15=In the mood
TTITLE16=12th street rag
TTITLE17=La cucaracha
TTITLE18=Royal garden blues
EXTD=YEAR: 2000
EXTT0=
EXTT1=
EXTT2=
EXTT3=
EXTT4=
EXTT5=
EXTT6=
EXTT7=
EXTT8=
EXTT9=
EXTT10=
EXTT11=
EXTT12=
EXTT13=
EXTT14=
EXTT15=
EXTT16=
EXTT17=
EXTT18=
PLAYORDER=
